<svg xmlns="http://www.w3.org/2000/svg" width="80" height="80" viewBox="0 0 80 80">
  <path id="Exclusion_1" data-name="Exclusion 1" d="M1130.481-1112h0c-1.4,0-3.924-1.991-7.1-5.608a109.2,109.2,0,0,1-9.858-13.558,118.275,118.275,0,0,1-8.751-16.607c-2.506-5.984-3.777-10.948-3.777-14.755a29.264,29.264,0,0,1,2.318-11.472,29.374,29.374,0,0,1,6.322-9.368,29.407,29.407,0,0,1,9.377-6.316A29.338,29.338,0,0,1,1130.5-1192a29.339,29.339,0,0,1,11.483,2.316,29.405,29.405,0,0,1,9.377,6.316,29.37,29.37,0,0,1,6.322,9.368,29.264,29.264,0,0,1,2.318,11.472c0,3.809-1.273,8.772-3.784,14.752a118.157,118.157,0,0,1-8.765,16.589,110.026,110.026,0,0,1-9.866,13.55c-3.171,3.617-5.688,5.619-7.086,5.636h-.018Zm.018-63.016a11.43,11.43,0,0,0-8.132,3.365,11.409,11.409,0,0,0-3.368,8.124,11.409,11.409,0,0,0,3.368,8.125,11.43,11.43,0,0,0,8.132,3.365,11.43,11.43,0,0,0,8.132-3.365,11.409,11.409,0,0,0,3.368-8.125,11.409,11.409,0,0,0-3.368-8.124A11.43,11.43,0,0,0,1130.5-1175.016Z" transform="translate(-1101 1192)" fill="#65ffa0"/>
</svg>
